<?xml version="1.0" encoding="utf-8"?>
<!-- Generator: Adobe Illustrator 24.1.0, SVG Export Plug-In . SVG Version: 6.00 Build 0)  -->
<svg version="1.1" id="Logo_Artwork" xmlns="http://www.w3.org/2000/svg" xmlns:xlink="http://www.w3.org/1999/xlink" x="0px"
	 y="0px" viewBox="0 0 181.58 57.09" enable-background="new 0 0 181.58 57.09" xml:space="preserve">
<style type="text/css">
	.st0{fill:none;}
	.st1{fill:#5f249f;}
	.st2{fill:#FFFFFF;}
	.st3{fill-rule:evenodd;clip-rule:evenodd;fill:#FFFFFF;}
</style>
<g>
	<rect class="st0" width="181.59" height="57.09"/>
	<rect class="st1" width="181.59" height="57.09"/>
	<g>
		<g>
			<g>
				<g>
					<line class="st2" x1="27.6" y1="28.3" x2="27.6" y2="28.3"/>
					<path class="st2" d="M24.1,28.3"/>
					<path class="st2" d="M27.7,40.5c0,0-0.8-0.6-0.6-0.9"/>
					<path class="st2" d="M24.9,42.2c-0.8-0.3-1.8-0.4-2.3-0.2l0.1,0.3l0.4,0.5l0.4,0c0,0,0.3,0,0.6,0.1
						C24.1,43,24.8,42.2,24.9,42.2z"/>
					<g>
						<path class="st2" d="M27.3,10.5c0,0-0.2,0.1-0.2,0.2c0,0.1-0.1,0.2-0.1,0.3c0,0.1,0,0.2-0.1,0.3c0,0-0.1,0.1-0.2,0.2l0,0
							c0.5,0,1,0.1,1.5,0.1l0,0c0.1-0.1,0.2-0.2,0.2-0.2c0.1-0.1,0.1-0.2,0.1-0.3c0-0.1,0.1-0.2,0.2-0.3c0.1-0.1,0.2-0.2,0.2-0.2h0
							C28.4,10.6,27.9,10.5,27.3,10.5L27.3,10.5z"/>
					</g>
					<g>
						<path class="st2" d="M29.3,10.8c0,0-0.2,0.1-0.2,0.1c-0.1,0.1-0.1,0.2-0.2,0.3c0,0.1-0.1,0.2-0.1,0.3c0,0-0.1,0.1-0.2,0.2l0,0
							c0.5,0.1,1,0.2,1.5,0.3l0,0c0.1,0,0.3-0.1,0.3-0.1c0.1-0.1,0.1-0.2,0.2-0.3c0-0.1,0.1-0.2,0.2-0.3c0.1-0.1,0.2-0.1,0.2-0.1
							l0,0C30.4,11,29.9,10.9,29.3,10.8L29.3,10.8z"/>
					</g>
					<g>
						<path class="st2" d="M31.3,11.4c0,0-0.2,0-0.2,0.1c-0.1,0.1-0.1,0.2-0.2,0.3c0,0.1-0.1,0.2-0.2,0.3c0,0-0.1,0.1-0.3,0.1l0,0
							c0.5,0.2,0.9,0.3,1.4,0.5l0,0c0.1,0,0.3-0.1,0.3-0.1c0.1-0.1,0.1-0.2,0.2-0.2c0.1-0.1,0.2-0.2,0.2-0.2
							c0.1-0.1,0.3-0.1,0.3-0.1l0,0C32.3,11.7,31.8,11.5,31.3,11.4L31.3,11.4z"/>
					</g>
					<g>
						<path class="st2" d="M33.2,12.2c0,0-0.2,0-0.3,0.1c-0.1,0-0.2,0.2-0.2,0.2c-0.1,0.1-0.1,0.2-0.2,0.2c0,0-0.1,0.1-0.3,0.1l0,0
							c0.5,0.2,0.9,0.5,1.3,0.7l0,0c0.1,0,0.3-0.1,0.3-0.1c0.1-0.1,0.2-0.2,0.2-0.2c0.1-0.1,0.2-0.2,0.3-0.2c0.1,0,0.3-0.1,0.3-0.1
							l0,0C34.1,12.7,33.6,12.4,33.2,12.2L33.2,12.2z"/>
					</g>
					<g>
						<path class="st2" d="M34.9,13.2c0,0-0.2,0-0.3,0c-0.1,0-0.2,0.1-0.3,0.2c-0.1,0.1-0.1,0.2-0.2,0.2c0,0-0.1,0.1-0.3,0.1l0,0
							c0.4,0.3,0.8,0.6,1.2,0.9l0,0c0.1,0,0.3,0,0.3,0c0.1,0,0.2-0.1,0.3-0.2c0.1-0.1,0.2-0.1,0.3-0.2c0.1,0,0.3,0,0.3,0v0
							C35.8,13.9,35.3,13.5,34.9,13.2L34.9,13.2z"/>
					</g>
					<g>
						<path class="st2" d="M36.5,14.5c0,0-0.2,0-0.3,0c-0.1,0-0.2,0.1-0.3,0.2c-0.1,0.1-0.1,0.1-0.3,0.2c0,0-0.2,0-0.3,0l0,0
							c0.4,0.3,0.8,0.7,1.1,1l0,0c0.1,0,0.3,0,0.3,0c0.1,0,0.2-0.1,0.3-0.1c0.1,0,0.2-0.1,0.3-0.1c0.1,0,0.3,0,0.3,0v0
							C37.3,15.2,36.9,14.9,36.5,14.5L36.5,14.5z"/>
					</g>
					<g>
						<path class="st2" d="M37.9,16c0,0-0.2,0-0.3,0c-0.1,0-0.2,0.1-0.3,0.1c-0.1,0-0.2,0.1-0.3,0.1c0,0-0.2,0-0.3,0l0,0
							c0.3,0.4,0.7,0.8,1,1.2l0,0c0.1,0,0.3,0,0.3,0c0.1,0,0.2-0.1,0.3-0.1c0.1,0,0.2-0.1,0.3-0.1c0.1,0,0.3,0,0.3,0v0
							C38.6,16.8,38.2,16.4,37.9,16L37.9,16z"/>
					</g>
					<g>
						<path class="st2" d="M39.1,17.6c0,0-0.2-0.1-0.3-0.1c-0.1,0-0.2,0-0.3,0.1c-0.1,0-0.2,0.1-0.3,0.1c0,0-0.2,0-0.3-0.1l0,0
							c0.3,0.4,0.6,0.8,0.8,1.3v0C38.8,19,39,19,39,19c0.1,0,0.2,0,0.3-0.1c0.1,0,0.2-0.1,0.3-0.1c0.1,0,0.3,0.1,0.3,0.1l0,0
							C39.6,18.5,39.4,18.1,39.1,17.6L39.1,17.6z"/>
					</g>
					<g>
						<path class="st2" d="M40.1,19.4c0,0-0.2-0.1-0.2-0.1c-0.1,0-0.2,0-0.3,0c-0.1,0-0.2,0.1-0.3,0.1c0,0-0.2,0-0.3-0.1l0,0
							c0.2,0.4,0.4,0.9,0.6,1.4v0c0.1,0.1,0.3,0.1,0.3,0.1c0.1,0,0.2,0,0.3,0c0.1,0,0.3,0,0.3,0c0.1,0,0.2,0.1,0.2,0.1v0
							C40.5,20.4,40.3,19.9,40.1,19.4L40.1,19.4z"/>
					</g>
					<g>
						<path class="st2" d="M40.8,21.3c0,0-0.1-0.1-0.2-0.1c-0.1,0-0.2,0-0.3,0c-0.1,0-0.2,0-0.3,0c0,0-0.1,0-0.3-0.1l0,0
							c0.2,0.5,0.3,1,0.4,1.4v0c0.1,0.1,0.3,0.2,0.3,0.2c0.1,0,0.2,0,0.3,0c0.1,0,0.3,0,0.3,0c0.1,0,0.2,0.1,0.2,0.1v0
							C41.1,22.3,41,21.8,40.8,21.3L40.8,21.3z"/>
					</g>
					<g>
						<path class="st2" d="M41.3,23.3c0,0-0.1-0.1-0.2-0.2c-0.1,0-0.2,0-0.3,0c-0.1,0-0.2,0-0.3,0c0,0-0.1-0.1-0.2-0.2l0,0
							c0.1,0.5,0.2,1,0.2,1.5l0,0c0.1,0.1,0.2,0.2,0.2,0.2c0.1,0.1,0.2,0,0.3,0.1c0.1,0,0.3,0,0.3,0.1c0.1,0,0.2,0.2,0.2,0.2l0,0
							C41.5,24.3,41.4,23.8,41.3,23.3L41.3,23.3z"/>
					</g>
					<g>
						<path class="st2" d="M41.5,25.3c0,0-0.1-0.1-0.2-0.2c-0.1,0-0.2-0.1-0.3-0.1c-0.1,0-0.2,0-0.3-0.1c0,0-0.1-0.1-0.2-0.2l0,0
							c0,0.5,0.1,1,0,1.5l0,0c0.1,0.1,0.2,0.2,0.2,0.2c0.1,0.1,0.2,0.1,0.3,0.1c0.1,0,0.2,0.1,0.3,0.1c0.1,0.1,0.2,0.2,0.2,0.2v0
							C41.5,26.4,41.5,25.8,41.5,25.3L41.5,25.3z"/>
					</g>
					<g>
						<path class="st2" d="M41.5,27.3c0,0-0.1-0.2-0.2-0.2c-0.1,0-0.2-0.1-0.3-0.1c-0.1,0-0.2,0-0.3-0.1c0,0-0.1-0.1-0.2-0.2l0,0
							c0,0.5-0.1,1-0.2,1.5l0,0c0.1,0.1,0.2,0.2,0.2,0.2c0.1,0.1,0.2,0.1,0.3,0.1c0.1,0,0.2,0.1,0.3,0.2c0.1,0.1,0.2,0.2,0.2,0.2v0
							C41.4,28.4,41.4,27.9,41.5,27.3L41.5,27.3z"/>
					</g>
					<g>
						<path class="st2" d="M41.2,29.3c0,0-0.1-0.2-0.1-0.2c-0.1-0.1-0.2-0.1-0.3-0.2c-0.1,0-0.2-0.1-0.3-0.1c0,0-0.1-0.1-0.2-0.2
							l0,0c-0.1,0.5-0.2,1-0.3,1.5l0,0c0,0.1,0.1,0.3,0.1,0.3c0.1,0.1,0.2,0.1,0.3,0.2c0.1,0.1,0.2,0.1,0.3,0.2
							c0.1,0.1,0.1,0.2,0.1,0.2l0,0C40.9,30.4,41,29.9,41.2,29.3L41.2,29.3z"/>
					</g>
					<g>
						<path class="st2" d="M40.6,31.3c0,0,0-0.2-0.1-0.2c0-0.1-0.2-0.2-0.2-0.2c-0.1-0.1-0.2-0.1-0.2-0.2c0,0-0.1-0.1-0.1-0.3l0,0
							c-0.2,0.5-0.4,0.9-0.6,1.4l0,0c0,0.1,0.1,0.3,0.1,0.3c0.1,0.1,0.2,0.2,0.2,0.2c0.1,0.1,0.2,0.2,0.2,0.2c0,0.1,0.1,0.3,0.1,0.3
							l0,0C40.2,32.3,40.4,31.8,40.6,31.3L40.6,31.3z"/>
					</g>
					<g>
						<path class="st2" d="M39.8,33.2c0,0,0-0.2-0.1-0.3c0-0.1-0.2-0.2-0.2-0.2c-0.1-0.1-0.2-0.1-0.2-0.2c0,0-0.1-0.1-0.1-0.3l0,0
							c-0.2,0.5-0.5,0.9-0.7,1.3l0,0c0,0.1,0.1,0.3,0.1,0.3c0.1,0.1,0.2,0.2,0.2,0.2c0.1,0.1,0.2,0.2,0.2,0.3c0,0.1,0.1,0.3,0.1,0.3
							l0,0C39.3,34.1,39.5,33.6,39.8,33.2L39.8,33.2z"/>
					</g>
					<g>
						<path class="st2" d="M38.7,34.9c0,0,0-0.2,0-0.3c0-0.1-0.1-0.2-0.2-0.3c-0.1-0.1-0.2-0.1-0.2-0.2c0,0-0.1-0.1-0.1-0.3l0,0
							c-0.3,0.4-0.6,0.8-0.9,1.2l0,0c0,0.1,0,0.3,0,0.3c0,0.1,0.1,0.2,0.2,0.3c0.1,0.1,0.1,0.2,0.2,0.3c0,0.1,0,0.3,0,0.3l0,0
							C38.1,35.8,38.4,35.3,38.7,34.9L38.7,34.9z"/>
					</g>
					<g>
						<path class="st2" d="M37.4,36.5c0,0,0-0.2,0-0.3c0-0.1-0.1-0.2-0.2-0.3c-0.1-0.1-0.1-0.1-0.2-0.3c0,0,0-0.2,0-0.3l0,0
							c-0.3,0.4-0.7,0.8-1,1.1l0,0c0,0.1,0,0.3,0,0.3c0,0.1,0.1,0.2,0.1,0.3c0,0.1,0.1,0.2,0.1,0.3c0,0.1,0,0.3,0,0.3l0,0
							C36.7,37.2,37.1,36.9,37.4,36.5L37.4,36.5z"/>
					</g>
					<g>
						<path class="st2" d="M36,37.9c0,0,0-0.2,0-0.3c0-0.1-0.1-0.2-0.1-0.3c0-0.1-0.1-0.2-0.1-0.3c0,0,0-0.2,0-0.3l0,0
							c-0.4,0.3-0.8,0.7-1.2,0.9l0,0c0,0.1,0,0.3,0,0.3c0,0.1,0.1,0.2,0.1,0.3c0,0.1,0.1,0.2,0.1,0.3c0,0.1-0.1,0.3-0.1,0.3l0,0
							C35.1,38.6,35.6,38.2,36,37.9L36,37.9z"/>
					</g>
					<g>
						<path class="st2" d="M34.3,39.1c0,0,0.1-0.2,0.1-0.3c0-0.1,0-0.2-0.1-0.3c0-0.1-0.1-0.2-0.1-0.3c0,0,0-0.2,0.1-0.3l0,0
							c-0.4,0.3-0.8,0.6-1.3,0.8l0,0c-0.1,0.1-0.1,0.3-0.1,0.3c0,0.1,0,0.2,0.1,0.3c0,0.1,0.1,0.2,0.1,0.3c0,0.1-0.1,0.3-0.1,0.3h0
							C33.4,39.6,33.9,39.4,34.3,39.1L34.3,39.1z"/>
					</g>
					<g>
						<path class="st2" d="M32.5,40.1c0,0,0.1-0.2,0.1-0.2c0-0.1,0-0.2,0-0.3c0-0.1-0.1-0.2-0.1-0.3c0,0,0-0.2,0.1-0.3l0,0
							c-0.5,0.2-0.9,0.4-1.4,0.6h0c-0.1,0.1-0.1,0.3-0.1,0.3c0,0.1,0,0.2,0,0.3c0,0.1,0,0.3,0,0.3c0,0.1-0.1,0.3-0.1,0.3l0,0
							C31.5,40.5,32,40.3,32.5,40.1L32.5,40.1z"/>
					</g>
					<g>
						<path class="st2" d="M30.5,40.8c0,0,0-0.1,0.1-0.2c0-0.1,0-0.2,0-0.3c0-0.1-0.1-0.2,0-0.3c0,0,0.1-0.3,0.2-0.4l0,0
							c-0.5,0.2-1.2,0.4-1.6,0.7l0,0c-0.1,0-0.2,0.1-0.2,0.1c0,0.1-0.1,0.2-0.1,0.3c0,0.1,0,0.2,0,0.3c0,0.2-0.2,0.5-0.2,0.5l0,0
							c0.5-0.1,1.2-0.4,1.6-0.6L30.5,40.8z"/>
					</g>
					<g>
						<path class="st2" d="M20.6,40.6c0,0,0.2,0,0.2-0.1c0.1-0.1,0.2-0.2,0.2-0.3c0-0.1,0.1-0.2,0.2-0.3c0,0,0.1-0.1,0.3-0.1l0,0
							c-0.5-0.2-0.9-0.3-1.4-0.5l0,0c-0.1,0-0.3,0.1-0.3,0.1c-0.1,0.1-0.1,0.2-0.2,0.2c-0.1,0.1-0.2,0.2-0.2,0.2
							c-0.1,0.1-0.3,0.1-0.3,0.1l0,0C19.6,40.2,20.1,40.4,20.6,40.6L20.6,40.6z"/>
					</g>
					<g>
						<path class="st2" d="M18.8,39.8c0,0,0.2,0,0.3-0.1c0.1,0,0.2-0.2,0.2-0.2c0.1-0.1,0.1-0.2,0.2-0.2c0,0,0.1-0.1,0.3-0.1l0,0
							c-0.5-0.2-0.9-0.4-1.3-0.7l0,0c-0.1,0-0.3,0.1-0.3,0.1c-0.1,0.1-0.2,0.2-0.2,0.2c-0.1,0.1-0.2,0.2-0.3,0.2
							c-0.1,0-0.3,0.1-0.3,0.1l0,0C17.8,39.3,18.3,39.5,18.8,39.8L18.8,39.8z"/>
					</g>
					<g>
						<path class="st2" d="M17,38.7c0,0,0.2,0,0.3,0c0.1,0,0.2-0.1,0.3-0.2c0.1-0.1,0.1-0.2,0.2-0.2c0,0,0.1-0.1,0.3-0.1l0,0
							c-0.4-0.3-0.8-0.6-1.2-0.9l0,0c-0.1,0-0.3,0-0.3,0c-0.1,0-0.2,0.1-0.3,0.2c-0.1,0.1-0.2,0.1-0.3,0.2c-0.1,0-0.3,0-0.3,0l0,0
							C16.2,38.1,16.6,38.4,17,38.7L17,38.7z"/>
					</g>
					<g>
						<path class="st2" d="M15.4,37.4c0,0,0.2,0,0.3,0c0.1,0,0.2-0.1,0.3-0.2c0.1-0.1,0.1-0.1,0.3-0.2c0,0,0.2,0,0.3,0l0,0
							c-0.4-0.3-0.7-0.7-1.1-1l0,0c-0.1,0-0.3,0-0.3,0c-0.1,0-0.2,0.1-0.3,0.1c-0.1,0-0.2,0.1-0.3,0.1c-0.1,0-0.3,0-0.3,0h0
							C14.7,36.7,15,37.1,15.4,37.4L15.4,37.4z"/>
					</g>
					<g>
						<path class="st2" d="M14,36c0,0,0.2,0,0.3,0c0.1,0,0.2-0.1,0.3-0.1c0.1,0,0.2-0.1,0.3-0.1c0,0,0.2,0,0.3,0l0,0
							c-0.3-0.4-0.7-0.8-1-1.2l0,0c-0.1,0-0.3,0-0.3,0c-0.1,0-0.2,0.1-0.3,0.1c-0.1,0-0.2,0.1-0.3,0.1c-0.1,0-0.3-0.1-0.3-0.1l0,0
							C13.4,35.1,13.7,35.5,14,36L14,36z"/>
					</g>
					<g>
						<path class="st2" d="M12.8,34.3c0,0,0.2,0.1,0.3,0.1c0.1,0,0.2-0.1,0.3-0.1c0.1,0,0.2-0.1,0.3-0.1c0,0,0.2,0,0.3,0.1l0,0
							c-0.3-0.4-0.6-0.8-0.8-1.3v0c-0.1-0.1-0.3-0.1-0.3-0.1c-0.1,0-0.2,0-0.3,0.1c-0.1,0-0.2,0.1-0.3,0.1c-0.1,0-0.3-0.1-0.3-0.1
							l0,0C12.3,33.4,12.5,33.9,12.8,34.3L12.8,34.3z"/>
					</g>
					<g>
						<path class="st2" d="M11.8,32.5c0,0,0.2,0.1,0.3,0.1c0.1,0,0.2,0,0.3,0c0.1,0,0.2-0.1,0.3-0.1c0,0,0.2,0,0.3,0.1l0,0
							c-0.2-0.4-0.4-0.9-0.6-1.4v0c-0.1-0.1-0.3-0.1-0.3-0.1c-0.1,0-0.2,0-0.3,0c-0.1,0-0.2,0-0.3,0c-0.1,0-0.2-0.1-0.2-0.1v0
							C11.4,31.6,11.6,32,11.8,32.5L11.8,32.5z"/>
					</g>
					<g>
						<path class="st2" d="M11.1,30.6c0,0,0.1,0.1,0.2,0.1c0.1,0,0.2,0,0.3,0c0.1,0,0.2,0,0.3,0c0,0,0.1,0,0.3,0.1l0,0
							c-0.2-0.5-0.3-1-0.4-1.4v0c-0.1-0.1-0.2-0.2-0.2-0.2c-0.1,0-0.2,0-0.3,0c-0.1,0-0.3,0-0.3,0c-0.1,0-0.2-0.1-0.2-0.1v0
							C10.8,29.6,10.9,30.1,11.1,30.6L11.1,30.6z"/>
					</g>
					<g>
						<path class="st2" d="M10.6,28.7c0,0,0.1,0.1,0.2,0.2c0.1,0,0.2,0,0.3,0c0.1,0,0.2,0,0.3,0c0,0,0.1,0.1,0.2,0.2l0,0
							c-0.1-0.5-0.2-1-0.2-1.5l0,0c-0.1-0.1-0.2-0.2-0.2-0.2c-0.1-0.1-0.2,0-0.3-0.1c-0.1,0-0.3,0-0.3-0.1c-0.1,0-0.2-0.2-0.2-0.2v0
							C10.5,27.6,10.5,28.1,10.6,28.7L10.6,28.7z"/>
					</g>
					<g>
						<path class="st2" d="M10.4,26.6c0,0,0.1,0.1,0.2,0.2c0.1,0,0.2,0.1,0.3,0.1c0.1,0,0.2,0,0.3,0.1c0,0,0.1,0.1,0.2,0.2l0,0
							c0-0.5-0.1-1,0-1.5l0,0c-0.1-0.1-0.2-0.2-0.2-0.2c-0.1-0.1-0.2-0.1-0.3-0.1c-0.1,0-0.2-0.1-0.3-0.1c-0.1-0.1-0.2-0.2-0.2-0.2
							l0,0C10.4,25.6,10.4,26.1,10.4,26.6L10.4,26.6z"/>
					</g>
					<g>
						<path class="st2" d="M10.5,24.6c0,0,0.1,0.2,0.2,0.2c0.1,0,0.2,0.1,0.3,0.1c0.1,0,0.2,0,0.3,0.1c0,0,0.1,0.1,0.2,0.2l0,0
							c0-0.5,0.1-1,0.1-1.5l0,0c-0.1-0.1-0.2-0.2-0.2-0.2c-0.1-0.1-0.2-0.1-0.3-0.1c-0.1,0-0.2-0.1-0.3-0.2
							c-0.1-0.1-0.1-0.2-0.1-0.2l0,0C10.6,23.5,10.5,24.1,10.5,24.6L10.5,24.6z"/>
					</g>
					<g>
						<path class="st2" d="M10.8,22.6c0,0,0.1,0.2,0.1,0.2c0.1,0.1,0.2,0.1,0.3,0.2c0.1,0,0.2,0.1,0.3,0.1c0,0,0.1,0.1,0.2,0.2l0,0
							c0.1-0.5,0.2-1,0.3-1.5l0,0c0-0.1-0.1-0.3-0.1-0.3c-0.1-0.1-0.2-0.1-0.3-0.2c-0.1-0.1-0.2-0.1-0.3-0.2
							c-0.1-0.1-0.1-0.2-0.1-0.2v0C11,21.6,10.9,22.1,10.8,22.6L10.8,22.6z"/>
					</g>
					<g>
						<path class="st2" d="M11.3,20.6c0,0,0,0.2,0.1,0.2c0.1,0.1,0.2,0.1,0.3,0.2c0.1,0,0.2,0.1,0.3,0.2c0,0,0.1,0.1,0.1,0.3l0,0
							c0.2-0.5,0.3-0.9,0.5-1.4l0,0c0-0.1-0.1-0.3-0.1-0.3c-0.1-0.1-0.2-0.2-0.2-0.2c-0.1-0.1-0.2-0.2-0.2-0.2
							c-0.1-0.1-0.1-0.3-0.1-0.3l0,0C11.7,19.6,11.5,20.1,11.3,20.6L11.3,20.6z"/>
					</g>
					<g>
						<path class="st2" d="M12.2,18.8c0,0,0,0.2,0.1,0.3c0,0.1,0.2,0.2,0.2,0.2c0.1,0.1,0.2,0.1,0.2,0.2c0,0,0.1,0.1,0.1,0.3l0,0
							c0.2-0.5,0.5-0.9,0.7-1.3l0,0c0-0.1-0.1-0.3-0.1-0.3c-0.1-0.1-0.2-0.2-0.2-0.2c-0.1-0.1-0.2-0.2-0.2-0.3
							c0-0.1-0.1-0.3-0.1-0.3l0,0C12.7,17.8,12.4,18.3,12.2,18.8L12.2,18.8z"/>
					</g>
					<g>
						<path class="st2" d="M13.2,17c0,0,0,0.2,0,0.3c0,0.1,0.1,0.2,0.2,0.3c0.1,0.1,0.2,0.1,0.2,0.2c0,0,0.1,0.1,0.1,0.3l0,0
							c0.3-0.4,0.6-0.8,0.9-1.2l0,0c0-0.1,0-0.3,0-0.3c0-0.1-0.1-0.2-0.2-0.3c-0.1-0.1-0.1-0.2-0.2-0.3c0-0.1,0-0.3,0-0.3l0,0
							C13.8,16.2,13.5,16.6,13.2,17L13.2,17z"/>
					</g>
					<g>
						<path class="st2" d="M14.5,15.5c0,0,0,0.2,0,0.3c0,0.1,0.1,0.2,0.2,0.3c0.1,0.1,0.1,0.1,0.2,0.3c0,0,0,0.1,0,0.3l0,0
							c0.3-0.4,0.7-0.8,1-1.1l0,0c0-0.1,0-0.3,0-0.3c0-0.1-0.1-0.2-0.1-0.3c0-0.1-0.1-0.2-0.1-0.3c0-0.1,0-0.3,0-0.3l0,0
							C15.2,14.7,14.8,15,14.5,15.5L14.5,15.5z"/>
					</g>
					<g>
						<path class="st2" d="M16,14c0,0,0,0.2,0,0.3c0,0.1,0.1,0.2,0.1,0.3c0,0.1,0.1,0.2,0.1,0.3c0,0,0,0.2,0,0.3l0,0
							c0.4-0.3,0.8-0.7,1.2-0.9l0,0c0-0.1,0-0.3,0-0.3c0-0.1-0.1-0.2-0.1-0.3c0-0.1-0.1-0.2-0.1-0.3c0-0.1,0.1-0.3,0.1-0.3l0,0
							C16.8,13.4,16.4,13.7,16,14L16,14z"/>
					</g>
					<g>
						<path class="st2" d="M17.6,12.8c0,0-0.1,0.2-0.1,0.3c0,0.1,0,0.2,0.1,0.3c0,0.1,0.1,0.2,0.1,0.3c0,0,0,0.2-0.1,0.3l0,0
							c0.4-0.3,0.8-0.5,1.3-0.8l0,0c0.1-0.1,0.1-0.3,0.1-0.3c0-0.1,0-0.2-0.1-0.3c0-0.1-0.1-0.2-0.1-0.3c0-0.1,0.1-0.3,0.1-0.3l0,0
							C18.5,12.3,18,12.5,17.6,12.8L17.6,12.8z"/>
					</g>
					<g>
						<path class="st2" d="M19.4,11.9c0,0-0.1,0.2-0.1,0.3c0,0.1,0,0.2,0,0.3c0,0.1,0.1,0.2,0.1,0.3c0,0,0,0.2-0.1,0.3l0,0
							c0.4-0.2,0.9-0.4,1.4-0.6h0c0.1-0.1,0.1-0.3,0.1-0.3c0-0.1,0-0.2,0-0.3c0-0.1,0-0.2,0-0.3c0-0.1,0.1-0.2,0.1-0.2h0
							C20.4,11.4,19.9,11.6,19.4,11.9L19.4,11.9z"/>
					</g>
					<g>
						<path class="st2" d="M21.3,11.1c0,0-0.1,0.1-0.1,0.2c0,0.1,0,0.2,0,0.3c0,0.1,0,0.2,0,0.3c0,0,0,0.1-0.1,0.3l0,0
							c0.5-0.2,1-0.3,1.4-0.4h0c0.1-0.1,0.2-0.2,0.2-0.2c0-0.1,0-0.2,0-0.3c0-0.1,0-0.3,0-0.3c0-0.1,0.1-0.2,0.1-0.2h0
							C22.3,10.8,21.8,11,21.3,11.1L21.3,11.1z"/>
					</g>
					<g>
						<path class="st2" d="M23.3,10.6c0,0-0.1,0.1-0.2,0.2c0,0.1,0,0.2,0,0.3c0,0.1,0,0.2,0,0.3c0,0-0.1,0.1-0.2,0.2l0,0
							c0.5-0.1,1-0.2,1.5-0.2l0,0c0.1-0.1,0.2-0.2,0.2-0.2c0.1-0.1,0-0.2,0.1-0.3c0-0.1,0-0.2,0.1-0.3c0-0.1,0.2-0.2,0.2-0.2h0
							C24.3,10.5,23.8,10.5,23.3,10.6L23.3,10.6z"/>
					</g>
					<g>
						<path class="st2" d="M25.3,10.4c0,0-0.1,0.1-0.2,0.2c0,0.1-0.1,0.2-0.1,0.3c0,0.1,0,0.2-0.1,0.3c0,0-0.1,0.1-0.2,0.2l0,0
							c0.5,0,1-0.1,1.5,0l0,0c0.1-0.1,0.2-0.2,0.2-0.2c0.1-0.1,0.1-0.2,0.1-0.3c0-0.1,0.1-0.2,0.1-0.3c0.1-0.1,0.2-0.2,0.2-0.2h0
							C26.3,10.4,25.8,10.4,25.3,10.4L25.3,10.4z"/>
					</g>
					<g>
						<path class="st2" d="M21.5,40.5c0,0,0.2,0.8,0.7,0.9c0.1-0.3,0.6-0.8,0.9-1l0.1-0.1c-0.1-0.7,0.2-1.1,0.2-1.1l-0.3,0.1
							C22.4,39.5,21.8,39.9,21.5,40.5L21.5,40.5z"/>
					</g>
					<g>
						<path class="st2" d="M22.5,43.3c0.1,0,0.2-0.1,0.3-0.2h0c-0.4-0.3-0.6-0.8-0.6-1.3c-0.7-0.1-0.9-0.9-0.9-0.9l0,0
							c-0.1,0.3-0.2,0.6-0.2,0.9c0,0.5,0.1,1.1,0.4,1.5h0C21.6,43.3,22.1,43.4,22.5,43.3z"/>
					</g>
					<g>
						<path class="st2" d="M24,43.4c-0.1,0-0.2,0-0.3,0c-0.2,0-0.4,0-0.6-0.1h0c-0.2,0.5-1.2,0.4-1.2,0.4l0,0
							c0.4,0.4,0.9,0.6,1.5,0.7l0,0C23.4,44.4,24,44.3,24,43.4L24,43.4z"/>
					</g>
					<g>
						<path class="st2" d="M24.4,43.4C24.4,43.4,24.4,43.4,24.4,43.4l0.5,0.1c0.9,0.2,1,0.4,1,0.4l0,0c0,0-1,0.9-1.9,0.7l0,0
							C24,44.5,24.7,44.1,24.4,43.4L24.4,43.4"/>
					</g>
					<g>
						<path class="st2" d="M27.3,43.2c-0.7-0.5-1.3-0.6-1.8-0.8l0,0l-1,0.7l1.1,0.4c0.3,0.1,0.4,0.3,0.9,0.5
							C26.5,44,27.6,43.4,27.3,43.2z"/>
					</g>
					<g>
						<path class="st2" d="M29.2,44.1c-0.4,0.4-1,0.4-1,0.4c-0.4,0-0.8,0-1.3-0.3c0,0,0.8-0.6,0.8-0.9c0.2,0.1,0.8,0.1,0.9,0
							C28.7,43.4,28.9,43.9,29.2,44.1z"/>
					</g>
					<g>
						<path class="st2" d="M27.7,40.5c0.4-0.4,0.8-0.5,1.1-0.4c1-0.4,1.2-0.5,1.2-0.5l0,0c-0.4-0.4-0.8-0.5-1.5-0.5
							c-0.3,0-1.3,0.4-1.4,0.6"/>
					</g>
					<g>
						<path class="st2" d="M27.4,40.7c0,0-0.7-0.6-0.5-1c-0.7,0.7-1,1-1.7,1l0,0c-0.2,0,0,0,0,0c-0.1,0.1-0.1,0.2-0.2,0.3
							c0,0.1-0.1,0.2-0.1,0.3c0,0.3,0,0.3,0,0.3l0,0c0.7,0,0.6,0.1,1.2-0.1c0,0,0.4-0.2,0.8-0.6C27.1,40.9,27.3,40.7,27.4,40.7z"/>
					</g>
					<g>
						<path class="st2" d="M24.7,41.7c0,0-0.1,0,0-0.4c0-0.1,0.1-0.2,0.1-0.3c0-0.1,0.1-0.2,0.2-0.3c0,0-0.1,0.1,0,0l-0.2,0
							c-0.5,0-0.8-0.1-1.2-0.2l0,0c-0.1,0,0,0,0,0c-0.2,0-0.4,0.2-0.4,0.3c0,0.1-0.1,0.1-0.2,0.2c0,0-0.2,0.2-0.2,0.2h0
							C23.2,41.4,24.2,41.7,24.7,41.7L24.7,41.7z"/>
					</g>
					<g>
						<g>
							<path class="st2" d="M24.1,39.3c0.1-0.1,0.2-0.1,0.4-0.1c0.6-0.1,1.5,0.3,1.6,0.7l-0.3,0.2c-0.2,0.2-0.6,0.2-0.6,0.2
								l-0.2-0.1c-0.2-0.1-0.5-0.1-0.7-0.1c-0.2,0-0.5-0.1-0.6,0l0,0C23.5,40,24.1,39.3,24.1,39.3L24.1,39.3z"/>
						</g>
					</g>
					<g>
						<path class="st2" d="M21.6,43.8c-0.2,0.2-0.4,0.3-0.4,0.3L21,44.3l0,0c0,0-0.7-0.8-1.3-0.3l0,0c0.2-0.3,0.4-0.6,0.6-0.7
							c0.1-0.1,0.3-0.2,0.5-0.4l-0.1,0c0.1,0,0.2-0.1,0.2-0.1C21,42.8,21.1,43.5,21.6,43.8z"/>
					</g>
					<g>
						<path class="st2" d="M19.4,44.4c0.7-0.6,1.3,0.2,1.3,0.2l-0.5,0.5L19.4,44.4z"/>
					</g>
					<g>
						<polygon class="st2" points="19.8,45.4 19.9,45.3 19.2,44.6 19.1,44.7 						"/>
					</g>
					<g>
						<path class="st2" d="M18.9,44.9c-0.2,0.2-0.4,0.3-0.4,0.3l0.8,0.9l0.3-0.5L18.9,44.9z"/>
					</g>
					<g>
						<path class="st2" d="M32,45.1c0.2,0.2,0.4,0.3,0.4,0.3l-0.8,0.9l-0.3-0.5L32,45.1z"/>
					</g>
					<g>
						<polygon class="st2" points="31.8,45 31.7,44.9 31,45.5 31.1,45.6 						"/>
					</g>
					<g>
						<path class="st2" d="M31.6,44.6c-0.7-0.6-1.3,0.1-1.3,0.1l0.5,0.5L31.6,44.6z"/>
					</g>
					<g>
						<path class="st2" d="M30.3,43.1c-0.9-0.5-1.4,0.2-1.4,0.2l0,0c0.6,0.3,1,0.9,1,0.9l0.1,0.2l0,0c0,0,0.7-0.8,1.3-0.3l0,0
							c-0.2-0.3-0.4-0.6-0.5-0.7C30.6,43.4,30.5,43.2,30.3,43.1L30.3,43.1z"/>
					</g>
					<g>
						<path class="st2" d="M26.8,41.6c-0.1,0,0.5,0.2,1.4,0.1l0,0c0,0,0.1-0.1,0.2-0.2c0-0.1,0.1-0.3,0.1-0.4c0-0.1,0-0.1,0-0.3
							c0,0,0-0.1,0-0.2l0,0c-0.1,0.1-0.7,0.2-0.7,0.2c-0.2,0-0.3,0.1-0.3,0.1c-0.1,0.1-0.2,0.1-0.2,0.2c0,0-0.2,0.1-0.3,0.2
							C27.1,41.4,26.8,41.5,26.8,41.6z"/>
					</g>
					<g>
						<path class="st2" d="M30.6,42.9c0.6-0.7,0.3-1.4,0.2-1.8l-1.1,0.5c0,0.1,0.2,0.4-0.1,0.7C29.6,42.3,30.7,42.8,30.6,42.9z"/>
					</g>
					<g>
						<g>
							<path class="st2" d="M28.4,43.1c0,0,0.8-0.7,1.2-0.5l-0.1-0.1c-0.4-0.3-1-0.5-1.5-0.5c-0.5,0-1.3,0.1-1.5,0.4
								c0,0,0.7,0.1,1.1,0.6C27.8,43.1,28,43,28.4,43.1z"/>
						</g>
					</g>
				</g>
				<g>
					<path class="st2" d="M16.9,25.7l0.5-0.9l1,0.2l-0.7-0.7l0.5-0.9l-0.9,0.5l-0.7-0.7l0.2,1l-0.9,0.5l1,0.2L16.9,25.7z M23.7,28.3
						L23.7,28.3c-0.5,0.1-1.2,0.1-1.8,0.2c-0.3-1.1-1.1-2.6-2.5-2.4c-1.2,0.2-1.7,1.4-1.4,2.5c-1.7,0.2-3.2-1.2-3.6-2.8
						c-0.5-2.4,1.2-4.8,3.8-4.8C21.7,21.1,23.6,25.8,23.7,28.3z"/>
					<path class="st2" d="M35,25.7l0.2-1l1-0.1l-0.9-0.5l0.2-1l-0.7,0.7l-0.9-0.5l0.5,0.9l-0.7,0.7l1-0.2L35,25.7z M28.2,28.4
						c0.1-2.5,2-7.2,5.6-7.2c2.5,0,4.3,2.4,3.8,4.8c-0.4,1.6-1.8,3-3.6,2.8c0.3-1.1-0.2-2.4-1.4-2.5c-1.4-0.2-2.3,1.3-2.5,2.4
						C29.4,28.5,28.8,28.4,28.2,28.4L28.2,28.4z"/>
					<path class="st2" d="M26,30c2.3,0,4.2-0.2,4.2-0.4c0-0.1-1.9-0.4-4.2-0.4c-2.3,0-4.2,0.2-4.2,0.4C21.8,29.7,23.7,30,26,30z
						 M26,30.5c-2.7,0-4.8-0.4-4.8-0.9c0-0.5,2.2-0.9,4.8-0.9c2.7,0,4.8,0.4,4.8,0.9C30.8,30.1,28.6,30.5,26,30.5z"/>
					<g>
						<path class="st2" d="M29.9,30.6c-0.5,0.1-1.1,0.2-1.7,0.2l0,0c0.1,1.1,1,3.3,2.5,3.3c1.1,0,2-1,2-2
							C31.4,32.8,30.1,32.2,29.9,30.6L29.9,30.6z"/>
					</g>
					<g>
						<path class="st2" d="M23.7,30.9c-0.6-0.1-1.2-0.1-1.7-0.2l0,0c-0.3,1.6-1.6,2.2-2.9,1.6c0.1,1.1,0.9,2,2,2
							C22.7,34.2,23.6,31.9,23.7,30.9L23.7,30.9z"/>
					</g>
					<g>
						<path class="st3" d="M26,13.8c0.6,0.7,1.7,1.5,1.9,1.7c1.6,1.2,2.4,2.9,2.4,4.4c0,2.7-2.3,5.1-2.6,8.4c-0.5-0.1-1-0.1-1.5-0.1
							c0.1-3.3-0.1-7.9-0.3-11.2c-0.2,3.3-0.4,7.8-0.3,11.2c-0.5,0-1,0-1.5,0.1c-0.3-3.3-2.6-5.7-2.6-8.4c0-1.5,0.8-3.2,2.4-4.4
							C24.2,15.3,25.3,14.5,26,13.8z"/>
					</g>
					<g>
						<path class="st3" d="M26,37.3c1.3-0.6,2.6-1.8,3.2-3c-0.8-1.1-1.2-2.4-1.4-3.3c-0.5,0-1,0.1-1.5,0.1c-0.1,0.9-0.1,2.8-0.3,3.8
							c-0.3-1-0.3-2.9-0.3-3.8c-0.5,0-1,0-1.5-0.1c-0.1,1-0.5,2.2-1.4,3.3C23.3,35.5,24.7,36.7,26,37.3z"/>
					</g>
				</g>
			</g>
			<g>
				<g>
					<path class="st2" d="M169.5,15.6c0.9,0,1.7,0.7,1.7,1.7c0,1-0.8,1.7-1.7,1.7c-0.9,0-1.7-0.7-1.7-1.7
						C167.9,16.3,168.6,15.6,169.5,15.6z M169.5,18.7c0.8,0,1.4-0.6,1.4-1.4c0-0.8-0.6-1.4-1.4-1.4c-0.8,0-1.4,0.6-1.4,1.4
						C168.1,18.1,168.7,18.7,169.5,18.7z M168.9,16.3h0.7c0.5,0,0.7,0.2,0.7,0.6c0,0.3-0.2,0.5-0.5,0.5l0.6,0.9h-0.3l-0.5-0.8h-0.3
						v0.8h-0.3V16.3z M169.2,17.2h0.3c0.3,0,0.5,0,0.5-0.3c0-0.3-0.2-0.3-0.4-0.3h-0.4V17.2z"/>
				</g>
				<g>
					<path class="st2" d="M97.7,33.2c-3.8,0-6.4-2.9-6.4-7.4c0-4.4,2.5-7.3,6.4-7.3c3.8,0,6.3,2.9,6.3,7.3
						C104.1,30.3,101.5,33.2,97.7,33.2z M97.7,15.7c-2.8,0-5.3,0.9-7.1,2.5c-2.1,1.8-3.2,4.6-3.2,7.9c0,3.3,1.2,6.1,3.5,8
						c1.8,1.5,4.2,2.3,6.9,2.3c2.8,0,5.3-0.9,7.1-2.5c2.1-1.9,3.3-4.6,3.3-7.9c0-3.1-1.1-5.8-3-7.6C103.3,16.6,100.7,15.6,97.7,15.7
						z"/>
					<path class="st2" d="M112.3,16.1l3.8,0v12.1c0,0.1,0,0.7,0,0.8c0.1,1.3,0.5,2.4,1.3,3.1c0.8,0.7,1.9,1.1,3.4,1.1
						c1.6,0,2.8-0.4,3.6-1.2c0.7-0.7,1.1-1.7,1.1-2.9c0-0.1,0-0.6,0-0.7V16.1l3.8,0v12.5c0,2.3-0.7,4.1-2,5.5
						c-1.5,1.5-3.7,2.4-6.6,2.4c-2.8,0-5-0.8-6.3-2.1c-1.3-1.3-2.1-3.2-2.1-5.4V16.1z"/>
					<path class="st2" d="M149,19.1l-5.8,0v16.8h-3.8l0-16.8h-6.2v-3h17.4L149,19.1z"/>
					<g>
						<path class="st2" d="M71.4,18.5c1.8-1.7,4.3-2.8,7.3-2.9c0.3,0,0.7,0,1,0c1.5,0.1,3.3,0.6,4.6,1.4c0.2,0.1,0.4,0.3,0.4,0.3
							c-0.2,0.3-1.4,2.5-1.4,2.5s-0.2-0.1-0.4-0.2c-0.9-0.5-2-0.8-3.2-0.8c-0.2,0-0.4,0-0.6,0c-2,0.1-3.6,0.8-4.8,2.1
							c-1.1,1.2-1.7,2.8-1.8,4.6c0,0.3,0,0.6,0,0.9c0.2,4,2.7,6.7,6.4,6.9c0.2,0,0.5,0,0.8,0c1.4-0.1,2.6-0.5,3.8-1.3c0,0,0,0,0,0
							c0.1,0.2,1.4,2.7,1.5,2.8c-1.5,0.9-3.9,1.6-6.3,1.6c-3.1,0-5.7-1-7.5-2.8c-1.8-1.8-2.8-4.3-2.8-7.4
							C68.4,23,69.5,20.3,71.4,18.5z"/>
					</g>
					<g>
						<path class="st2" d="M60.9,30.5c0-1.9-1.9-2.8-3.8-3.6c-1.3-0.6-2.4-1-3.5-2c-1.1-1-1.7-2.3-1.7-4c0-3.3,2.6-5.4,6.7-5.4
							c2.9,0,4.9,1,5.9,1.7c0,0.1-1.4,2.4-1.4,2.5c-1.2-0.8-2.7-1.4-3.9-1.4c-2.1,0.1-3.3,1.1-3.3,2.4c0,1.7,1.8,2.4,3.6,3.2l0,0
							c2.6,1,5.5,2.3,5.5,6.3c0,3.5-3.1,6-7.4,6c-2.5,0-4.6-0.6-6.7-1.7c0-0.1,1.5-2.8,1.5-2.8c1.7,0.9,3.3,1.5,4.7,1.5
							C59.4,33.3,60.9,32.1,60.9,30.5z"/>
					</g>
					<g>
						<path class="st2" d="M162,30.5c0-1.9-1.9-2.8-3.8-3.6c-1.3-0.6-2.4-1-3.5-2c-1.1-1-1.7-2.3-1.7-4c0-3.3,2.6-5.4,6.7-5.4
							c2.9,0,4.9,1,5.9,1.7c0,0.1-1.4,2.4-1.4,2.5c-1.2-0.8-2.7-1.4-3.9-1.4c-2.1,0.1-3.3,1.1-3.3,2.4c0,1.7,1.8,2.4,3.6,3.2v0
							c2.6,1,5.5,2.3,5.5,6.3c0,3.5-3.1,6-7.4,6c-2.5,0-4.6-0.6-6.7-1.7c0-0.1,1.5-2.8,1.5-2.8c1.7,0.9,3.3,1.5,4.7,1.5
							C160.5,33.3,162,32.1,162,30.5z"/>
					</g>
				</g>
			</g>
		</g>
		<g>
			<path class="st2" d="M73.11,44.67l-0.82,1.93h-0.83l3.13-7.11l3.05,7.11h-0.84l-0.8-1.93H73.11z M74.58,41.25l-1.16,2.72h2.3
				L74.58,41.25z"/>
			<path class="st2" d="M78.1,44.49c0-1.24,0.98-2.24,2.22-2.24s2.22,1,2.22,2.24s-0.99,2.22-2.22,2.22S78.1,45.74,78.1,44.49z
				 M78.82,44.48c0,0.86,0.61,1.57,1.5,1.57s1.5-0.7,1.5-1.57c0-0.86-0.61-1.57-1.5-1.57S78.82,43.63,78.82,44.48z"/>
			<path class="st2" d="M84.38,46.6h-0.72v-3.57h-0.44v-0.67h0.44v-1.52h0.72v1.52h0.76v0.67h-0.76V46.6z"/>
			<path class="st2" d="M86.23,44.64c0.01,0.78,0.57,1.41,1.39,1.41c0.61,0,1.01-0.37,1.29-0.87l0.61,0.35
				c-0.4,0.76-1.09,1.19-1.95,1.19c-1.26,0-2.07-0.96-2.07-2.18c0-1.25,0.73-2.29,2.05-2.29c1.36,0,2.08,1.13,2.01,2.39H86.23z
				 M88.8,44.02c-0.1-0.61-0.61-1.11-1.24-1.11c-0.62,0-1.2,0.5-1.29,1.11H88.8z"/>
			<path class="st2" d="M94.49,46.6h-0.72v-0.58h-0.02c-0.37,0.47-0.86,0.7-1.46,0.7c-1.24,0-2.03-1.05-2.03-2.22
				c0-1.21,0.77-2.24,2.03-2.24c0.58,0,1.1,0.27,1.45,0.72h0.02v-0.6h0.72V46.6z M91.01,44.44c0,0.83,0.49,1.61,1.39,1.61
				c0.93,0,1.41-0.75,1.41-1.6c0-0.85-0.53-1.53-1.42-1.53C91.55,42.92,91.01,43.65,91.01,44.44z"/>
			<path class="st2" d="M96.6,42.83h0.02c0.25-0.33,0.47-0.58,0.94-0.58c0.24,0,0.44,0.08,0.65,0.2l-0.34,0.66
				c-0.14-0.1-0.24-0.19-0.43-0.19c-0.79,0-0.83,1.02-0.83,1.57v2.12h-0.72v-4.23h0.72V42.83z"/>
			<path class="st2" d="M98.64,44.49c0-1.24,0.98-2.24,2.22-2.24c1.24,0,2.22,1,2.22,2.24s-0.99,2.22-2.22,2.22
				C99.63,46.72,98.64,45.74,98.64,44.49z M99.36,44.48c0,0.86,0.61,1.57,1.5,1.57c0.89,0,1.5-0.7,1.5-1.57
				c0-0.86-0.61-1.57-1.5-1.57C99.97,42.92,99.36,43.63,99.36,44.48z"/>
			<path class="st2" d="M108.03,46.6h-0.72v-0.58h-0.02c-0.37,0.47-0.86,0.7-1.46,0.7c-1.24,0-2.03-1.05-2.03-2.22
				c0-1.21,0.76-2.24,2.03-2.24c0.58,0,1.1,0.27,1.45,0.72h0.02v-0.6h0.72V46.6z M104.55,44.44c0,0.83,0.49,1.61,1.39,1.61
				c0.93,0,1.41-0.75,1.41-1.6c0-0.85-0.53-1.53-1.42-1.53C105.09,42.92,104.55,43.65,104.55,44.44z"/>
			<path class="st2" d="M112.36,39.52l5.29,5.55v-5.26h0.76v7.09l-5.29-5.54v5.23h-0.76V39.52z"/>
			<path class="st2" d="M120.27,44.64c0.01,0.78,0.57,1.41,1.39,1.41c0.61,0,1.01-0.37,1.29-0.87l0.61,0.35
				c-0.41,0.76-1.09,1.19-1.95,1.19c-1.26,0-2.07-0.96-2.07-2.18c0-1.25,0.73-2.29,2.05-2.29c1.36,0,2.08,1.13,2.01,2.39H120.27z
				 M122.84,44.02c-0.1-0.61-0.61-1.11-1.24-1.11c-0.62,0-1.2,0.5-1.29,1.11H122.84z"/>
			<path class="st2" d="M126.08,45.23l1.31-3.19l1.32,3.19l1.26-2.86h0.82l-2.1,4.53l-1.31-3.15l-1.31,3.15l-2.08-4.53h0.82
				L126.08,45.23z"/>
			<path class="st2" d="M138.77,45.9v0.7h-4.86l3.7-6.09h-3.23v-0.7h4.49l-3.71,6.09H138.77z"/>
			<path class="st2" d="M140.19,44.64c0.01,0.78,0.57,1.41,1.39,1.41c0.61,0,1.01-0.37,1.29-0.87l0.61,0.35
				c-0.41,0.76-1.09,1.19-1.95,1.19c-1.26,0-2.07-0.96-2.07-2.18c0-1.25,0.73-2.29,2.05-2.29c1.36,0,2.08,1.13,2.01,2.39H140.19z
				 M142.75,44.02c-0.1-0.61-0.61-1.11-1.24-1.11c-0.62,0-1.2,0.5-1.29,1.11H142.75z"/>
			<path class="st2" d="M148.45,46.6h-0.72v-0.58h-0.02c-0.37,0.47-0.86,0.7-1.46,0.7c-1.24,0-2.03-1.05-2.03-2.22
				c0-1.21,0.76-2.24,2.03-2.24c0.58,0,1.1,0.27,1.45,0.72h0.02v-0.6h0.72V46.6z M144.97,44.44c0,0.83,0.49,1.61,1.39,1.61
				c0.93,0,1.41-0.75,1.41-1.6c0-0.85-0.53-1.53-1.42-1.53C145.51,42.92,144.97,43.65,144.97,44.44z"/>
			<path class="st2" d="M150.57,46.6h-0.72v-7.43h0.72V46.6z"/>
			<path class="st2" d="M155.87,46.6h-0.72v-0.58h-0.02c-0.37,0.47-0.86,0.7-1.46,0.7c-1.24,0-2.03-1.05-2.03-2.22
				c0-1.21,0.76-2.24,2.03-2.24c0.58,0,1.1,0.27,1.45,0.72h0.02v-0.6h0.72V46.6z M152.38,44.44c0,0.83,0.49,1.61,1.39,1.61
				c0.93,0,1.41-0.75,1.41-1.6c0-0.85-0.53-1.53-1.42-1.53C152.92,42.92,152.38,43.65,152.38,44.44z"/>
			<path class="st2" d="M158.01,42.88h0.02c0.3-0.41,0.68-0.63,1.21-0.63c1.17,0,1.44,0.85,1.44,1.84v2.51h-0.72v-2.39
				c0-0.68-0.05-1.3-0.89-1.3c-0.99,0-1.05,0.92-1.05,1.67v2.01h-0.72v-4.23h0.72V42.88z"/>
			<path class="st2" d="M165.27,46.01h-0.02c-0.35,0.46-0.88,0.7-1.46,0.7c-1.24,0-2.03-1.05-2.03-2.22
				c0-1.21,0.76-2.24,2.03-2.24c0.57,0,1.11,0.27,1.45,0.72h0.02v-3.8h0.72v7.43h-0.72V46.01z M162.51,44.44
				c0,0.83,0.49,1.61,1.39,1.61c0.93,0,1.41-0.75,1.41-1.6c0-0.85-0.53-1.53-1.42-1.53C163.05,42.92,162.51,43.65,162.51,44.44z"/>
		</g>
	</g>
</g>
</svg>
